<svg xmlns="http://www.w3.org/2000/svg" width="420" height="300"><path d="M0 0h420v300H0z" style="fill:#06c;fill-opacity:1;stroke:none"/><path d="M350 150a140 140 0 0 1-280 0 140 140 0 1 1 280 0z" style="fill:#fff;fill-opacity:1;stroke:none" transform="translate(22.5 16.097) scale(.89286)"/><path d="M202.545 279.858c-14.456-.782-27.187-3.382-39.987-8.166-4.627-1.73-12.153-5.311-16.511-7.86-2.937-1.716-8.494-5.376-9.244-6.087-.28-.266-.479-.579-.44-.695.048-.147.982-.223 3.057-.249 44.701-.566 81.89-4.113 105.778-10.089 5.884-1.472 12.09-3.405 15.172-4.726 1.42-.61 1.799-.502 3.982 1.135 3.793 2.843 8.681 5.897 12.703 7.935 2.798 1.418 6.56 3.094 8.052 3.586.924.305.955.337.948.983-.008.747.103.649-3.84 3.422-6.943 4.885-15.035 9.07-24.005 12.414-2.6.97-7.286 2.522-7.902 2.618-.2.03-.446.107-.546.169-.316.195-4.775 1.39-8.37 2.242-5.876 1.393-14.61 2.671-21.744 3.183-3.642.26-13.692.37-17.103.185zm-55.407-29.849c-6.912-.264-18.815-1.106-22.035-1.56-.618-.086-1.074-.396-2.639-1.793-4.647-4.149-9.888-10.124-14.21-16.2-1.197-1.685-4.29-6.376-4.773-7.24l-.479-.858.416.001c.228 0 1.77.162 3.425.358 22.058 2.616 46.76 3.62 67.043 2.727 34.774-1.533 64.266-7.753 89.431-18.863 1.251-.552 2.743-1.24 3.316-1.53.572-.288 1.227-.522 1.456-.52.264 0 1.236.729 2.689 2.009 2.078 1.83 4.934 4.201 6.284 5.215.296.223.948.716 1.449 1.097 4 3.047 10.946 7.265 15.557 9.45 6.005 2.844 12.704 5.131 18.068 6.169l1.6.31-.115.564c-.171.831-1.29 3.048-2.062 4.082-2.582 3.46-6.625 7.825-9.758 10.536-2.104 1.82-6.092 4.943-6.762 5.296-.897.472-8.273-2.224-14.096-5.153-5.026-2.528-12.946-7.45-16.612-10.323-.493-.387-.985-.67-1.094-.628-.163.063-9.65 3.133-12.475 4.038-2.031.65-10.628 3.046-13.999 3.9-18.01 4.57-35.013 7.274-52.05 8.28-11.475.677-28.816.97-37.575.636zm169.595-29.4c-5.838-1.106-11.714-2.965-17.752-5.616-2.181-.958-6.488-3.183-8.266-4.272-.661-.405-1.25-.736-1.306-.736-.058 0-1.428-.87-3.045-1.933-5.437-3.574-9.87-7.126-14.21-11.385-.695-.68-1.333-1.238-1.42-1.238-.086 0-1.565.622-3.286 1.383a212.864 212.864 0 0 1-6.314 2.646c-1.751.694-3.39 1.35-3.64 1.457-1.082.464-9.643 3.457-12.554 4.39-7.895 2.53-17.707 5.091-26.293 6.866-30.234 6.25-62.819 7.835-96.983 4.72-8.072-.736-23.786-2.775-24.898-3.231-.184-.075-.83-.995-1.436-2.042-2.936-5.077-5.703-11.161-7.128-15.674-.848-2.687-1.978-7.076-1.853-7.2.038-.04 3.087.262 6.775.67 34.532 3.812 64.779 4.47 92.316 2.008 9.745-.872 20.322-2.366 30.114-4.253 17.406-3.355 34.218-8.62 48.36-15.141 2.889-1.333 9.088-4.418 9.31-4.635.096-.092.464-.166.82-.165.563 0 .82.181 2.01 1.395 10.06 10.264 24.763 18.962 42.032 24.866 2.851.974 8.69 2.719 11.372 3.397 1.301.33 2.426.65 2.499.713.165.143-.73 3.563-1.495 5.717-1.536 4.325-3.741 8.466-6.863 12.89-1.67 2.367-3.85 4.882-4.215 4.864-.164-.01-1.356-.216-2.65-.461z" style="fill:#06c;fill-opacity:1;stroke:none" transform="translate(22.5 16.097) scale(.89286)"/></svg>