<?xml version="1.0" standalone="no"?>
<!DOCTYPE svg PUBLIC "-//W3C//DTD SVG 20010904//EN"
 "http://www.w3.org/TR/2001/REC-SVG-20010904/DTD/svg10.dtd">
<svg version="1.0" xmlns="http://www.w3.org/2000/svg"
 width="672.000000pt" height="672.000000pt" viewBox="0 0 672.000000 672.000000"
 preserveAspectRatio="xMidYMid meet">
<metadata>
Created by potrace 1.14, written by Peter Selinger 2001-2017
</metadata>
<g transform="translate(0.000000,672.000000) scale(0.100000,-0.100000)"
fill="#000000" stroke="none">
<path d="M120 3388 l0 -3333 3215 0 c1768 1 3217 4 3221 8 4 4 8 1503 8 3332
l1 3325 -3222 0 -3223 0 0 -3332z m1280 3092 c19 3 181 3 360 0 179 -3 348 -3
375 0 28 3 82 3 120 0 39 -3 86 -3 105 0 19 3 181 3 360 0 179 -3 348 -3 375
0 28 3 82 3 120 0 39 -3 86 -3 105 0 19 3 181 3 360 0 179 -3 348 -3 375 0 28
3 82 3 120 0 39 -3 86 -3 105 0 19 3 181 3 360 0 179 -3 348 -3 375 0 28 3 82
3 120 0 39 -3 86 -3 105 0 19 3 181 3 360 0 179 -3 348 -3 375 0 28 3 82 3
120 0 39 -3 86 -3 105 0 19 3 55 3 80 0 l45 -5 0 -2138 c0 -1381 -3 -2141 -9
-2145 -6 -3 -297 -6 -647 -6 -563 -1 -636 1 -630 14 9 21 5 96 -8 153 -34 145
-157 279 -456 495 -5 4 -22 13 -37 21 -16 8 -28 18 -28 23 0 4 -6 8 -14 8 -7
0 -19 6 -25 14 -7 8 -27 22 -46 31 -19 9 -35 20 -35 25 0 6 -5 10 -10 10 -6 0
-38 20 -73 45 -34 25 -73 53 -87 62 -165 119 -217 202 -185 293 48 134 108
212 179 231 23 6 60 22 83 36 48 28 156 141 180 188 9 17 19 32 22 35 3 3 25
45 48 94 50 106 67 129 116 161 46 31 85 73 116 128 23 39 24 52 25 202 l1
160 37 73 c22 43 35 82 32 95 -18 84 -16 114 10 164 14 28 28 66 31 85 3 18 8
47 11 63 3 17 10 48 15 70 6 22 12 47 14 55 2 8 13 38 25 65 19 42 22 68 22
155 -1 58 -4 121 -7 140 -10 56 -108 224 -140 238 -11 5 -36 16 -55 24 -27 12
-42 29 -62 69 -41 84 -84 136 -130 161 -24 12 -45 23 -48 23 -3 1 -31 14 -63
29 -32 14 -105 42 -161 62 -73 25 -118 47 -152 76 -102 84 -182 105 -394 102
-135 -1 -165 -5 -233 -27 -47 -15 -99 -41 -132 -66 -60 -46 -94 -61 -132 -61
-14 0 -46 -15 -72 -33 -25 -19 -68 -44 -96 -57 -102 -47 -160 -112 -171 -190
-7 -47 -32 -41 216 -44 168 -1 180 -4 240 -62 32 -30 154 -94 180 -94 21 0
175 -78 238 -120 34 -23 62 -48 62 -56 0 -8 4 -14 9 -14 5 0 12 -12 16 -27 10
-44 33 -72 71 -88 44 -18 51 -26 98 -103 51 -85 62 -129 60 -247 -1 -77 -6
-111 -22 -147 -12 -26 -24 -71 -27 -100 -7 -66 -23 -124 -43 -163 -9 -18 -18
-72 -22 -130 -6 -88 -10 -106 -37 -150 l-31 -50 4 -132 c5 -162 -7 -196 -99
-289 -40 -40 -77 -92 -106 -146 -82 -156 -158 -253 -226 -285 -112 -54 -152
-89 -192 -171 -49 -101 -43 -173 21 -236 23 -22 127 -101 231 -175 105 -74
215 -152 245 -174 68 -50 260 -244 260 -263 0 -8 3 -14 8 -14 19 0 57 -125 61
-198 2 -44 -1 -53 -18 -60 -15 -5 -217 -8 -253 -3 -6 1 -22 57 -18 63 1 2 -4
17 -10 33 -7 17 -14 41 -16 54 -3 13 -12 37 -20 52 -8 16 -14 31 -14 34 1 17
-38 73 -77 108 -86 79 -96 87 -102 87 -3 0 -17 10 -31 23 -14 13 -59 48 -100
77 -41 30 -76 58 -78 62 -2 5 -8 8 -13 8 -6 0 -15 5 -22 11 -7 5 -43 30 -82
54 -114 72 -262 204 -267 239 -4 23 21 121 44 176 18 43 73 100 96 100 41 0
192 110 192 139 0 6 4 11 9 11 10 0 111 197 111 216 0 9 20 30 107 113 23 22
52 75 60 111 2 8 5 74 7 145 3 139 6 154 44 199 23 28 24 35 18 123 -5 92 -1
127 14 118 15 -9 28 20 34 75 12 107 18 133 39 167 17 30 21 56 24 173 3 129
2 142 -20 192 -27 60 -57 91 -124 128 -37 20 -49 34 -65 75 -11 28 -27 58 -35
68 -38 41 -147 103 -303 173 -36 16 -112 53 -170 84 l-105 54 -185 0 c-211 0
-244 -7 -299 -64 -25 -27 -53 -43 -92 -55 -31 -8 -77 -29 -103 -45 -26 -17
-51 -30 -56 -30 -4 0 -10 -3 -12 -7 -1 -5 -25 -19 -51 -33 -57 -30 -65 -42
-71 -109 -3 -39 -12 -61 -39 -93 -42 -53 -166 -264 -198 -338 -21 -49 -24 -69
-23 -186 1 -140 9 -166 61 -195 31 -17 36 -38 18 -66 -21 -32 -21 -64 -1 -143
21 -79 59 -159 105 -220 35 -44 35 -46 37 -150 1 -63 8 -125 17 -154 18 -57
13 -75 -37 -120 -49 -44 -85 -59 -158 -62 -37 -1 -84 -8 -105 -15 -51 -18
-132 -78 -174 -129 -62 -75 -95 -90 -404 -187 -27 -9 -63 -21 -80 -27 -16 -6
-33 -11 -37 -11 -3 0 -10 -3 -14 -7 -4 -5 -15 -8 -23 -8 -16 0 -135 -56 -175
-82 -73 -48 -315 -318 -401 -448 -17 -25 -32 -47 -36 -50 -3 -3 -23 -36 -44
-75 -21 -38 -43 -73 -49 -77 -6 -4 -7 -8 -3 -8 10 0 -11 -40 -22 -40 -4 0 -8
895 -8 1990 l0 1990 425 0 c234 0 426 1 428 2 1 2 35 1 76 -2 40 -3 89 -3 108
0z m801 -4580 c0 -51 0 -1504 -1 -1565 l0 -40 -917 0 -918 0 -3 825 -2 826
920 0 920 0 1 -46z m2089 -776 c0 -649 -3 -823 -12 -826 -7 -2 -422 -4 -923
-4 l-910 1 -1 63 c-1 34 -4 69 -8 77 -3 8 -2 15 2 15 8 0 7 284 -2 306 -3 7
-2 14 2 14 8 0 7 284 -2 306 -3 7 -2 14 2 14 8 0 7 284 -2 306 -3 7 -2 14 2
14 4 0 6 84 4 187 -3 216 -3 200 -2 277 0 32 2 62 5 65 2 4 418 7 924 7 l921
0 0 -822z m2030 815 c3 -4 5 -375 5 -826 l-1 -818 -884 -1 c-487 0 -891 2
-897 4 -10 3 -13 177 -13 826 l0 822 893 0 c490 0 894 -3 897 -7z"/>
<path d="M609 1704 c-5 -6 -7 -258 -6 -575 l2 -564 409 -1 c409 0 476 3 569
32 38 11 131 57 145 71 7 7 16 13 20 13 14 0 110 97 141 143 59 86 83 168 86
292 1 83 -2 126 -16 175 -23 78 -60 155 -93 193 -14 16 -26 32 -28 36 -2 3
-25 25 -53 48 -98 81 -229 130 -375 139 -163 11 -791 10 -801 -2z m856 -176
c128 -36 214 -105 268 -218 30 -61 32 -71 32 -180 0 -104 -3 -121 -27 -172
-33 -71 -93 -137 -156 -171 -87 -47 -140 -53 -477 -52 l-310 0 -3 402 -2 402
327 -3 c181 -2 337 -5 348 -8z"/>
<path d="M3308 1745 c-2 -1 -30 -5 -63 -8 -78 -8 -197 -42 -260 -74 -27 -14
-63 -33 -79 -41 -16 -8 -65 -50 -107 -92 -62 -60 -86 -92 -114 -152 -43 -94
-50 -127 -49 -248 0 -104 2 -119 33 -202 70 -183 252 -325 488 -378 214 -49
465 -17 639 80 73 40 188 144 199 180 4 11 10 20 14 20 10 0 62 115 67 145 1
11 7 44 13 74 6 29 11 69 11 87 l0 34 -387 -2 -387 -3 -1 -78 c0 -44 4 -81 8
-84 4 -2 122 -5 262 -5 141 0 257 -3 259 -7 3 -4 -8 -29 -24 -57 -85 -146
-234 -224 -436 -229 -355 -9 -579 175 -562 460 13 195 148 334 383 391 64 15
184 19 260 9 65 -9 160 -42 207 -72 21 -12 42 -23 47 -23 5 0 11 -3 13 -7 2
-5 21 -25 43 -45 l41 -38 81 40 c45 21 84 43 86 48 7 11 -64 83 -133 134 -87
65 -216 117 -330 134 -46 7 -217 14 -222 9z"/>
<path d="M4786 1671 c-2 -3 -2 -195 -2 -426 l1 -420 28 -56 c67 -138 238 -238
452 -265 70 -9 270 -10 335 -2 234 30 416 145 467 293 15 44 17 101 18 462 1
282 -2 414 -9 416 -6 2 -49 4 -96 3 l-85 -1 -1 -395 c-1 -341 -3 -400 -17
-430 -58 -124 -205 -183 -454 -182 -181 1 -313 40 -385 115 -62 64 -62 64 -64
487 -1 212 -3 390 -3 396 -1 11 -179 16 -185 5z"/>
</g>
</svg>
